<svg id="visual" viewBox="0 0 540 960" width="540" height="960" xmlns="http://www.w3.org/2000/svg" xmlns:xlink="http://www.w3.org/1999/xlink" version="1.1"><rect width="540" height="960" fill="#001220"></rect><g><g transform="translate(334 35)"><path d="M81.9 -27.7C94.5 12.1 85 57.9 55.2 80.7C25.5 103.4 -24.5 103 -55 79.8C-85.6 56.7 -96.6 10.9 -84.2 -28.7C-71.8 -68.3 -35.9 -101.5 -0.6 -101.3C34.7 -101.1 69.4 -67.5 81.9 -27.7Z" stroke="#FBAE3C" fill="none" stroke-width="30"></path></g><g transform="translate(355 622)"><path d="M81.8 -26.7C91.7 4 75.6 42.9 47.9 62.2C20.2 81.5 -19.2 81 -47.1 61.5C-75 42.1 -91.5 3.5 -81.7 -26.9C-71.9 -57.3 -36 -79.5 0 -79.5C35.9 -79.5 71.9 -57.3 81.8 -26.7Z" stroke="#FBAE3C" fill="none" stroke-width="30"></path></g><g transform="translate(10 594)"><path d="M95.4 -29.7C107.5 6.5 90.3 53.5 58 76C25.7 98.6 -21.5 96.6 -50.8 74.3C-80 52 -91.2 9.4 -79.7 -25.8C-68.3 -60.9 -34.1 -88.6 3.7 -89.8C41.6 -91 83.2 -65.8 95.4 -29.7Z" stroke="#FBAE3C" fill="none" stroke-width="30"></path></g><g transform="translate(70 232)"><path d="M87.9 -24.3C99.4 6.9 84.3 51.1 56.2 69.7C28.1 88.3 -13 81.4 -43.4 59.5C-73.7 37.5 -93.2 0.4 -84.2 -27.3C-75.1 -55.1 -37.6 -73.5 0.3 -73.6C38.2 -73.8 76.4 -55.5 87.9 -24.3Z" stroke="#FBAE3C" fill="none" stroke-width="30"></path></g><g transform="translate(57 907)"><path d="M51.2 -16C59.1 7.7 53.3 36.6 35.7 49.5C18 62.5 -11.5 59.5 -33.2 44.1C-54.8 28.8 -68.4 1.1 -61.6 -21.2C-54.7 -43.4 -27.4 -60.2 -2.9 -59.2C21.6 -58.3 43.3 -39.7 51.2 -16Z" stroke="#FBAE3C" fill="none" stroke-width="30"></path></g><g transform="translate(486 300)"><path d="M58.3 -18.5C66.7 7 58.6 38.3 38.2 53.3C17.8 68.3 -15 67 -35.6 51.4C-56.3 35.9 -64.8 6 -56.9 -18.9C-48.9 -43.7 -24.5 -63.7 0.2 -63.7C24.9 -63.8 49.8 -44 58.3 -18.5Z" stroke="#FBAE3C" fill="none" stroke-width="30"></path></g><g transform="translate(473 918)"><path d="M71.1 -20.6C82.9 13.1 76.7 55.1 50.3 75.9C23.9 96.6 -22.7 96.1 -49.3 75.1C-75.9 54 -82.4 12.6 -70.9 -20.8C-59.3 -54.2 -29.6 -79.5 0 -79.5C29.7 -79.5 59.3 -54.2 71.1 -20.6Z" stroke="#FBAE3C" fill="none" stroke-width="30"></path></g></g></svg>