<svg id="visual" viewBox="0 0 960 540" width="960" height="540" xmlns="http://www.w3.org/2000/svg" xmlns:xlink="http://www.w3.org/1999/xlink" version="1.1"><rect width="960" height="540" fill="#001220"></rect><g><g transform="translate(743 287)"><path d="M98.1 -28.5C111.3 8.9 95.4 59.1 61.3 83.8C27.2 108.4 -25.1 107.4 -56.5 83.3C-88 59.1 -98.7 11.8 -85.8 -25.2C-72.9 -62.1 -36.5 -88.7 3 -89.6C42.4 -90.6 84.9 -66 98.1 -28.5Z" stroke="#FBAE3C" fill="none" stroke-width="30"></path></g><g transform="translate(126 434)"><path d="M84.9 -27.2C95.8 6 80.7 48.1 49.6 71.3C18.6 94.6 -28.3 99 -55.9 78.6C-83.6 58.1 -92 12.7 -79.4 -22.7C-66.9 -58.2 -33.5 -83.8 1.8 -84.3C37 -84.9 74 -60.5 84.9 -27.2Z" stroke="#FBAE3C" fill="none" stroke-width="30"></path></g><g transform="translate(15 127)"><path d="M72.5 -23.1C83.4 10 74.4 50 50.4 66.9C26.4 83.7 -12.6 77.4 -37.9 57.7C-63.1 38 -74.6 5 -66 -24.9C-57.4 -54.7 -28.7 -81.5 1.1 -81.9C30.8 -82.2 61.6 -56.1 72.5 -23.1Z" stroke="#FBAE3C" fill="none" stroke-width="30"></path></g><g transform="translate(452 63)"><path d="M73.3 -25.3C84.2 9.9 75 50.1 47.6 71.4C20.3 92.6 -25.1 94.8 -56.5 73.1C-87.9 51.4 -105.4 5.7 -93.6 -30.5C-81.9 -66.8 -40.9 -93.8 -4.9 -92.2C31.2 -90.6 62.3 -60.5 73.3 -25.3Z" stroke="#FBAE3C" fill="none" stroke-width="30"></path></g><g transform="translate(499 521)"><path d="M53.1 -17.6C59.6 2.6 49.1 28 30.6 41.2C12 54.5 -14.7 55.7 -31.2 43.6C-47.7 31.4 -54.1 5.9 -47.2 -14.9C-40.3 -35.7 -20.1 -51.7 1.6 -52.2C23.3 -52.8 46.6 -37.7 53.1 -17.6Z" stroke="#FBAE3C" fill="none" stroke-width="30"></path></g><g transform="translate(940 500)"><path d="M66.8 -20C76.6 8.3 67.5 44.3 43.4 62.5C19.3 80.7 -19.9 80.9 -44.2 62.8C-68.6 44.6 -78.2 8.1 -68.3 -20.3C-58.5 -48.7 -29.2 -68.8 -0.4 -68.7C28.5 -68.6 57.1 -48.2 66.8 -20Z" stroke="#FBAE3C" fill="none" stroke-width="30"></path></g><g transform="translate(886 27)"><path d="M64.9 -20.6C73.4 5 62.2 37.5 39.3 54.2C16.4 70.8 -18.1 71.6 -39 55.9C-59.9 40.2 -67.1 8 -58.3 -18C-49.6 -44 -24.8 -63.8 1.7 -64.4C28.2 -64.9 56.4 -46.2 64.9 -20.6Z" stroke="#FBAE3C" fill="none" stroke-width="30"></path></g></g></svg>